{"title":"Step.Up.3D.2010.BRRiP.320p.x264~PlutO~","uid":6010801,"size":367633426,"categoryP":"video","categoryS":"movies","magnet":"?xt=urn:btih:16b44deb89c063b6f78f10bc19640c76fcbc4913&amp;dn=Step.Up.3D.2010.BRRiP.320p.x264%7EPlutO%7E&amp;tr=udp%3A%2F%2Ftracker.openbittorrent.com%3A80&amp;tr=udp%3A%2F%2Fopen.demonii.com%3A1337&amp;tr=udp%3A%2F%2Ftracker.coppersurfer.tk%3A6969&amp;tr=udp%3A%2F%2Fexodus.desync.com%3A6969","seeders":1,"leechers":0,"uploader":"pluto999","files":-1,"time":1291451458,"description":"Director: Jon Chu\n\nWriters: Amy Andelson, Emily Meyer, and 1 more credit Ã‚Â»\n\nStars: Sharni Vinson, Rick Malambri and Adam G. Sevani\n\nPlot:A tight-knit group of New York City street dancers, including Luke (Malambri) and Natalie (Vinson), \nteam up with NYU freshman Moose (Sevani), and find themselves pitted against the world's best hip \nhop dancers in a high-stakes showdown that will change their lives forever.   \n\nPlot Keywords: Dancer | New York City | Dance Crew | Dance | Movie  | \n\nTaglines: Two Worlds. One Dream. \n\nGenres: Drama | Music | Romance\n\nMotion Picture Rating (MPAA)\nRated PG-13 for brief strong language\n\n------------------------------------------------------------\n        \nGeneral\nFormat                           : MPEG-4\nFormat profile                   : Base Media\nCodec ID                         : isom\nFile size                        : 351 MiB\nDuration                         : 1h 47mn\nOverall bit rate                 : 457 Kbps\n\n\nVideo\nID                               : 1\nFormat                           : AVC\nFormat/Info                      : Advanced Video Codec\nFormat profile                   : &lt;a class=&quot;__cf_email__&quot; href=&quot;/cdn-cgi/l/email-protection&quot; data-cfemail=&quot;a6eecfc1cee6ea948894&quot;&gt;[email&amp;#160;protected]&lt;/a&gt;&lt;script cf-hash='f9e31' type=&quot;text/javascript&quot;&gt;\n/* &lt;![CDATA[ */!function(){try{var t=&quot;currentScript&quot;in document?document.currentScript:function(){for(var t=document.getElementsByTagName(&quot;script&quot;),e=t.length;e--;)if(t[e].getAttribute(&quot;cf-hash&quot;))return t[e]}();if(t&amp;&amp;t.previousSibling){var e,r,n,i,c=t.previousSibling,a=c.getAttribute(&quot;data-cfemail&quot;);if(a){for(e=&quot;&quot;,r=parseInt(a.substr(0,2),16),n=2;a.length-n;n+=2)i=parseInt(a.substr(n,2),16)^r,e+=String.fromCharCode(i);e=document.createTextNode(e),c.parentNode.replaceChild(e,c)}}}catch(u){}}();/* ]]&gt; */&lt;/script&gt;\nFormat settings, CABAC           : Yes\nFormat settings, ReFrames        : 8 frames\nCodec ID                         : avc1\nCodec ID/Info                    : Advanced Video Coding\nDuration                         : 1h 47mn\nBit rate mode                    : Variable\nBit rate                         : 406 Kbps\nMaximum bit rate                 : 3 227 Kbps\nWidth                            : 592 pixels\nHeight                           : 320 pixels\nDisplay aspect ratio             : 1.850\nFrame rate mode                  : Constant\nFrame rate                       : 23.976 fps\nColor space                      : YUV\nChroma subsampling               : 4:2:0\nBit depth                        : 8 bits\nScan type                        : Progressive\n\n\nAudio\nID                               : 2\nFormat                           : AAC\nFormat/Info                      : Advanced Audio Codec\nFormat version                   : Version 4\nFormat profile                   : LC\nFormat settings, SBR             : Yes\nFormat settings, PS              : Yes\nCodec ID                         : 40\nDuration                         : 1h 47mn\nBit rate mode                    : Variable\nBit rate                         : 48.0 Kbps\nMaximum bit rate                 : 64.5 Kbps\nChannel(s)                       : 2 channels\nChannel positions                : Front: L R\nSampling rate                    : 48.0 KHz\nStream size                      : 36.8 MiB (10%)\nTitle                            : English\nLanguage                         : English\n\n\nText\nID                               : 3\nFormat                           : Timed text\nCodec ID                         : tx3g\nDuration                         : 1h 39mn\nBit rate mode                    : Variable\nBit rate                         : 43 bps\nStream size                      : 31.8 KiB (0%)\nLanguage                         : English\n\n\n------------------------------------------------------------\n                        Comment seed &amp; enjoy!!","torrent":{"xt":"urn:btih:16b44deb89c063b6f78f10bc19640c76fcbc4913","amp;dn":"Step.Up.3D.2010.BRRiP.320p.x264%7EPlutO%7E","amp;tr":["udp%3A%2F%2Ftracker.openbittorrent.com%3A80","udp%3A%2F%2Fopen.demonii.com%3A1337","udp%3A%2F%2Ftracker.coppersurfer.tk%3A6969","udp%3A%2F%2Fexodus.desync.com%3A6969"],"infoHash":"16b44deb89c063b6f78f10bc19640c76fcbc4913","infoHashBuffer":{"type":"Buffer","data":[22,180,77,235,137,192,99,182,247,143,16,188,25,100,12,118,252,188,73,19]},"announce":[],"urlList":[]}}